<mxfile host="app.diagrams.net" modified="2020-10-09T05:37:23.496Z" agent="5.0 (Macintosh; Intel Mac OS X 10_15_6) AppleWebKit/537.36 (KHTML, like Gecko) Chrome/85.0.4183.121 Safari/537.36" etag="8AIr1I46RS94GRl2Cqj4" version="13.6.4" type="github">
  <diagram id="DaU-oCp6zvbaXiUb9bUy" name="第 1 页">
    <mxGraphModel dx="1426" dy="771" grid="1" gridSize="10" guides="1" tooltips="1" connect="1" arrows="1" fold="1" page="1" pageScale="1" pageWidth="827" pageHeight="1169" math="0" shadow="0">
      <root>
        <mxCell id="0" />
        <mxCell id="1" parent="0" />
        <mxCell id="TBLh4uUDlI38wQqFFvVO-30" value="" style="edgeStyle=orthogonalEdgeStyle;rounded=0;orthogonalLoop=1;jettySize=auto;html=1;" edge="1" parent="1" source="TBLh4uUDlI38wQqFFvVO-1" target="TBLh4uUDlI38wQqFFvVO-4">
          <mxGeometry relative="1" as="geometry" />
        </mxCell>
        <mxCell id="TBLh4uUDlI38wQqFFvVO-1" value="&lt;b&gt;tc ingress&lt;/b&gt;" style="rounded=1;whiteSpace=wrap;html=1;fillColor=#bac8d3;glass=1;shadow=1;sketch=0;strokeColor=#23445d;" vertex="1" parent="1">
          <mxGeometry x="190" y="620" width="110" height="40" as="geometry" />
        </mxCell>
        <mxCell id="TBLh4uUDlI38wQqFFvVO-2" value="&lt;b&gt;tc egress&lt;/b&gt;" style="rounded=1;whiteSpace=wrap;html=1;fillColor=#bac8d3;glass=1;shadow=1;sketch=0;strokeColor=#23445d;" vertex="1" parent="1">
          <mxGeometry x="490" y="620" width="110" height="40" as="geometry" />
        </mxCell>
        <mxCell id="TBLh4uUDlI38wQqFFvVO-31" value="" style="edgeStyle=orthogonalEdgeStyle;rounded=0;orthogonalLoop=1;jettySize=auto;html=1;entryX=0.5;entryY=1;entryDx=0;entryDy=0;" edge="1" parent="1" source="TBLh4uUDlI38wQqFFvVO-3" target="TBLh4uUDlI38wQqFFvVO-1">
          <mxGeometry relative="1" as="geometry">
            <mxPoint x="245" y="670" as="targetPoint" />
          </mxGeometry>
        </mxCell>
        <mxCell id="TBLh4uUDlI38wQqFFvVO-3" value="&lt;b&gt;XDP&lt;/b&gt;" style="rounded=1;whiteSpace=wrap;html=1;fillColor=#f5f5f5;glass=1;shadow=1;strokeColor=#666666;gradientColor=#b3b3b3;" vertex="1" parent="1">
          <mxGeometry x="190" y="690" width="110" height="40" as="geometry" />
        </mxCell>
        <mxCell id="TBLh4uUDlI38wQqFFvVO-4" value="&lt;b&gt;PRE_ROUTING&lt;/b&gt;" style="rounded=1;whiteSpace=wrap;html=1;fillColor=#E6E6E6;glass=1;shadow=1;" vertex="1" parent="1">
          <mxGeometry x="190" y="550" width="110" height="40" as="geometry" />
        </mxCell>
        <mxCell id="TBLh4uUDlI38wQqFFvVO-5" value="&lt;b&gt;LOCAL_IN&lt;/b&gt;" style="rounded=1;whiteSpace=wrap;html=1;fillColor=#E6E6E6;glass=1;shadow=1;" vertex="1" parent="1">
          <mxGeometry x="190" y="410" width="110" height="40" as="geometry" />
        </mxCell>
        <mxCell id="TBLh4uUDlI38wQqFFvVO-7" value="&lt;b&gt;LOCAL_OUT&lt;/b&gt;" style="rounded=1;whiteSpace=wrap;html=1;fillColor=#E6E6E6;glass=1;shadow=1;" vertex="1" parent="1">
          <mxGeometry x="490" y="480" width="110" height="40" as="geometry" />
        </mxCell>
        <mxCell id="TBLh4uUDlI38wQqFFvVO-8" value="&lt;b&gt;POST_ROUTING&lt;/b&gt;" style="rounded=1;whiteSpace=wrap;html=1;fillColor=#E6E6E6;glass=1;shadow=1;" vertex="1" parent="1">
          <mxGeometry x="490" y="550" width="110" height="40" as="geometry" />
        </mxCell>
        <mxCell id="TBLh4uUDlI38wQqFFvVO-10" value="&lt;b&gt;conntrack init&lt;/b&gt;" style="rounded=1;whiteSpace=wrap;html=1;fillColor=none;" vertex="1" parent="1">
          <mxGeometry x="50" y="560" width="110" height="30" as="geometry" />
        </mxCell>
        <mxCell id="TBLh4uUDlI38wQqFFvVO-12" value="&lt;b&gt;DNAT&lt;/b&gt;" style="rounded=1;whiteSpace=wrap;html=1;fillColor=none;" vertex="1" parent="1">
          <mxGeometry x="50" y="530" width="110" height="30" as="geometry" />
        </mxCell>
        <mxCell id="TBLh4uUDlI38wQqFFvVO-14" value="&lt;b&gt;routing input&lt;/b&gt;" style="rounded=1;whiteSpace=wrap;html=1;fillColor=none;" vertex="1" parent="1">
          <mxGeometry x="190" y="480" width="110" height="40" as="geometry" />
        </mxCell>
        <mxCell id="TBLh4uUDlI38wQqFFvVO-15" value="&lt;b&gt;routing output&lt;/b&gt;" style="rounded=1;whiteSpace=wrap;html=1;fillColor=none;" vertex="1" parent="1">
          <mxGeometry x="490" y="410" width="110" height="40" as="geometry" />
        </mxCell>
        <mxCell id="TBLh4uUDlI38wQqFFvVO-17" value="&lt;b&gt;conntrack confirm&lt;/b&gt;" style="rounded=1;whiteSpace=wrap;html=1;fillColor=none;" vertex="1" parent="1">
          <mxGeometry x="50" y="390" width="110" height="30" as="geometry" />
        </mxCell>
        <mxCell id="TBLh4uUDlI38wQqFFvVO-21" value="&lt;b&gt;SNAT&lt;/b&gt;" style="rounded=1;whiteSpace=wrap;html=1;fillColor=none;" vertex="1" parent="1">
          <mxGeometry x="50" y="420" width="110" height="30" as="geometry" />
        </mxCell>
        <mxCell id="TBLh4uUDlI38wQqFFvVO-23" value="&lt;b&gt;conntrack init&lt;/b&gt;" style="rounded=1;whiteSpace=wrap;html=1;fillColor=none;" vertex="1" parent="1">
          <mxGeometry x="640" y="460" width="110" height="30" as="geometry" />
        </mxCell>
        <mxCell id="TBLh4uUDlI38wQqFFvVO-24" value="&lt;b&gt;DNAT&lt;/b&gt;" style="rounded=1;whiteSpace=wrap;html=1;fillColor=none;" vertex="1" parent="1">
          <mxGeometry x="640" y="490" width="110" height="30" as="geometry" />
        </mxCell>
        <mxCell id="TBLh4uUDlI38wQqFFvVO-25" value="&lt;b&gt;conntrack confirm&lt;/b&gt;" style="rounded=1;whiteSpace=wrap;html=1;fillColor=none;" vertex="1" parent="1">
          <mxGeometry x="640" y="580" width="110" height="30" as="geometry" />
        </mxCell>
        <mxCell id="TBLh4uUDlI38wQqFFvVO-26" value="&lt;b&gt;SNAT&lt;/b&gt;" style="rounded=1;whiteSpace=wrap;html=1;fillColor=none;" vertex="1" parent="1">
          <mxGeometry x="640" y="550" width="110" height="30" as="geometry" />
        </mxCell>
        <mxCell id="TBLh4uUDlI38wQqFFvVO-28" value="" style="endArrow=classic;html=1;entryX=0.5;entryY=1;entryDx=0;entryDy=0;" edge="1" parent="1" target="TBLh4uUDlI38wQqFFvVO-3">
          <mxGeometry width="50" height="50" relative="1" as="geometry">
            <mxPoint x="245" y="770" as="sourcePoint" />
            <mxPoint x="510" y="540" as="targetPoint" />
          </mxGeometry>
        </mxCell>
        <mxCell id="TBLh4uUDlI38wQqFFvVO-32" value="" style="endArrow=classic;html=1;entryX=1;entryY=0.5;entryDx=0;entryDy=0;" edge="1" parent="1" target="TBLh4uUDlI38wQqFFvVO-10">
          <mxGeometry width="50" height="50" relative="1" as="geometry">
            <mxPoint x="190" y="575" as="sourcePoint" />
            <mxPoint x="510" y="540" as="targetPoint" />
          </mxGeometry>
        </mxCell>
        <mxCell id="TBLh4uUDlI38wQqFFvVO-33" value="" style="endArrow=classic;html=1;entryX=0;entryY=0.25;entryDx=0;entryDy=0;" edge="1" parent="1" target="TBLh4uUDlI38wQqFFvVO-4">
          <mxGeometry width="50" height="50" relative="1" as="geometry">
            <mxPoint x="160" y="540" as="sourcePoint" />
            <mxPoint x="510" y="540" as="targetPoint" />
            <Array as="points">
              <mxPoint x="180" y="540" />
            </Array>
          </mxGeometry>
        </mxCell>
        <mxCell id="TBLh4uUDlI38wQqFFvVO-34" value="" style="endArrow=classic;html=1;exitX=0.5;exitY=0;exitDx=0;exitDy=0;entryX=0.5;entryY=1;entryDx=0;entryDy=0;" edge="1" parent="1" source="TBLh4uUDlI38wQqFFvVO-14" target="TBLh4uUDlI38wQqFFvVO-5">
          <mxGeometry width="50" height="50" relative="1" as="geometry">
            <mxPoint x="460" y="590" as="sourcePoint" />
            <mxPoint x="510" y="540" as="targetPoint" />
          </mxGeometry>
        </mxCell>
        <mxCell id="TBLh4uUDlI38wQqFFvVO-35" value="" style="endArrow=classic;html=1;entryX=1;entryY=0.5;entryDx=0;entryDy=0;" edge="1" parent="1" target="TBLh4uUDlI38wQqFFvVO-21">
          <mxGeometry width="50" height="50" relative="1" as="geometry">
            <mxPoint x="190" y="435" as="sourcePoint" />
            <mxPoint x="510" y="540" as="targetPoint" />
          </mxGeometry>
        </mxCell>
        <mxCell id="TBLh4uUDlI38wQqFFvVO-36" value="" style="endArrow=classic;html=1;exitX=1;exitY=0.5;exitDx=0;exitDy=0;entryX=0;entryY=0.25;entryDx=0;entryDy=0;" edge="1" parent="1" source="TBLh4uUDlI38wQqFFvVO-17" target="TBLh4uUDlI38wQqFFvVO-5">
          <mxGeometry width="50" height="50" relative="1" as="geometry">
            <mxPoint x="460" y="590" as="sourcePoint" />
            <mxPoint x="510" y="540" as="targetPoint" />
            <Array as="points">
              <mxPoint x="180" y="405" />
            </Array>
          </mxGeometry>
        </mxCell>
        <mxCell id="TBLh4uUDlI38wQqFFvVO-37" value="" style="endArrow=classic;html=1;exitX=0.5;exitY=0;exitDx=0;exitDy=0;entryX=0.5;entryY=1;entryDx=0;entryDy=0;" edge="1" parent="1" source="TBLh4uUDlI38wQqFFvVO-4" target="TBLh4uUDlI38wQqFFvVO-14">
          <mxGeometry width="50" height="50" relative="1" as="geometry">
            <mxPoint x="460" y="590" as="sourcePoint" />
            <mxPoint x="510" y="540" as="targetPoint" />
          </mxGeometry>
        </mxCell>
        <mxCell id="TBLh4uUDlI38wQqFFvVO-38" value="" style="endArrow=classic;html=1;entryX=0.5;entryY=1;entryDx=0;entryDy=0;" edge="1" parent="1">
          <mxGeometry width="50" height="50" relative="1" as="geometry">
            <mxPoint x="244.5" y="410" as="sourcePoint" />
            <mxPoint x="244.5" y="370" as="targetPoint" />
          </mxGeometry>
        </mxCell>
        <mxCell id="TBLh4uUDlI38wQqFFvVO-39" value="" style="endArrow=classic;html=1;exitX=1;exitY=0.5;exitDx=0;exitDy=0;entryX=0;entryY=0.5;entryDx=0;entryDy=0;" edge="1" parent="1" source="TBLh4uUDlI38wQqFFvVO-14" target="TBLh4uUDlI38wQqFFvVO-6">
          <mxGeometry width="50" height="50" relative="1" as="geometry">
            <mxPoint x="460" y="590" as="sourcePoint" />
            <mxPoint x="510" y="540" as="targetPoint" />
            <Array as="points">
              <mxPoint x="320" y="500" />
              <mxPoint x="320" y="570" />
            </Array>
          </mxGeometry>
        </mxCell>
        <mxCell id="TBLh4uUDlI38wQqFFvVO-40" value="" style="endArrow=classic;html=1;exitX=1;exitY=0.5;exitDx=0;exitDy=0;entryX=0;entryY=0.5;entryDx=0;entryDy=0;" edge="1" parent="1" source="TBLh4uUDlI38wQqFFvVO-6" target="TBLh4uUDlI38wQqFFvVO-8">
          <mxGeometry width="50" height="50" relative="1" as="geometry">
            <mxPoint x="460" y="590" as="sourcePoint" />
            <mxPoint x="510" y="540" as="targetPoint" />
          </mxGeometry>
        </mxCell>
        <mxCell id="TBLh4uUDlI38wQqFFvVO-41" value="" style="endArrow=classic;html=1;exitX=1;exitY=0.25;exitDx=0;exitDy=0;" edge="1" parent="1" source="TBLh4uUDlI38wQqFFvVO-8">
          <mxGeometry width="50" height="50" relative="1" as="geometry">
            <mxPoint x="460" y="590" as="sourcePoint" />
            <mxPoint x="640" y="560" as="targetPoint" />
          </mxGeometry>
        </mxCell>
        <mxCell id="TBLh4uUDlI38wQqFFvVO-42" value="" style="endArrow=classic;html=1;exitX=0;exitY=0.5;exitDx=0;exitDy=0;entryX=1;entryY=0.75;entryDx=0;entryDy=0;" edge="1" parent="1" source="TBLh4uUDlI38wQqFFvVO-25" target="TBLh4uUDlI38wQqFFvVO-8">
          <mxGeometry width="50" height="50" relative="1" as="geometry">
            <mxPoint x="460" y="590" as="sourcePoint" />
            <mxPoint x="510" y="540" as="targetPoint" />
            <Array as="points">
              <mxPoint x="610" y="595" />
            </Array>
          </mxGeometry>
        </mxCell>
        <mxCell id="TBLh4uUDlI38wQqFFvVO-43" value="" style="endArrow=classic;html=1;exitX=0.5;exitY=1;exitDx=0;exitDy=0;" edge="1" parent="1" source="TBLh4uUDlI38wQqFFvVO-8" target="TBLh4uUDlI38wQqFFvVO-2">
          <mxGeometry width="50" height="50" relative="1" as="geometry">
            <mxPoint x="460" y="590" as="sourcePoint" />
            <mxPoint x="510" y="540" as="targetPoint" />
          </mxGeometry>
        </mxCell>
        <mxCell id="TBLh4uUDlI38wQqFFvVO-44" value="" style="endArrow=classic;html=1;exitX=0.5;exitY=1;exitDx=0;exitDy=0;" edge="1" parent="1" source="TBLh4uUDlI38wQqFFvVO-2">
          <mxGeometry width="50" height="50" relative="1" as="geometry">
            <mxPoint x="460" y="590" as="sourcePoint" />
            <mxPoint x="545" y="700" as="targetPoint" />
          </mxGeometry>
        </mxCell>
        <mxCell id="TBLh4uUDlI38wQqFFvVO-45" value="" style="endArrow=classic;html=1;exitX=0.5;exitY=1;exitDx=0;exitDy=0;" edge="1" parent="1">
          <mxGeometry width="50" height="50" relative="1" as="geometry">
            <mxPoint x="544.5" y="370" as="sourcePoint" />
            <mxPoint x="544.5" y="410" as="targetPoint" />
          </mxGeometry>
        </mxCell>
        <mxCell id="TBLh4uUDlI38wQqFFvVO-46" value="" style="endArrow=classic;html=1;exitX=0.5;exitY=1;exitDx=0;exitDy=0;" edge="1" parent="1" source="TBLh4uUDlI38wQqFFvVO-15" target="TBLh4uUDlI38wQqFFvVO-7">
          <mxGeometry width="50" height="50" relative="1" as="geometry">
            <mxPoint x="460" y="590" as="sourcePoint" />
            <mxPoint x="510" y="540" as="targetPoint" />
          </mxGeometry>
        </mxCell>
        <mxCell id="TBLh4uUDlI38wQqFFvVO-47" value="" style="endArrow=classic;html=1;exitX=1;exitY=0.5;exitDx=0;exitDy=0;entryX=0;entryY=0.5;entryDx=0;entryDy=0;" edge="1" parent="1" source="TBLh4uUDlI38wQqFFvVO-7" target="TBLh4uUDlI38wQqFFvVO-23">
          <mxGeometry width="50" height="50" relative="1" as="geometry">
            <mxPoint x="460" y="590" as="sourcePoint" />
            <mxPoint x="640" y="500" as="targetPoint" />
            <Array as="points">
              <mxPoint x="620" y="475" />
            </Array>
          </mxGeometry>
        </mxCell>
        <mxCell id="TBLh4uUDlI38wQqFFvVO-51" value="" style="endArrow=classic;html=1;exitX=1;exitY=0.5;exitDx=0;exitDy=0;entryX=1;entryY=0.5;entryDx=0;entryDy=0;startArrow=classic;startFill=1;" edge="1" parent="1" source="TBLh4uUDlI38wQqFFvVO-15" target="TBLh4uUDlI38wQqFFvVO-24">
          <mxGeometry width="50" height="50" relative="1" as="geometry">
            <mxPoint x="550" y="600" as="sourcePoint" />
            <mxPoint x="600" y="550" as="targetPoint" />
            <Array as="points">
              <mxPoint x="780" y="430" />
              <mxPoint x="780" y="505" />
            </Array>
          </mxGeometry>
        </mxCell>
        <mxCell id="TBLh4uUDlI38wQqFFvVO-60" value="①" style="edgeLabel;html=1;align=center;verticalAlign=middle;resizable=0;points=[];" vertex="1" connectable="0" parent="TBLh4uUDlI38wQqFFvVO-51">
          <mxGeometry x="-0.3404" relative="1" as="geometry">
            <mxPoint as="offset" />
          </mxGeometry>
        </mxCell>
        <mxCell id="TBLh4uUDlI38wQqFFvVO-54" value="" style="endArrow=classic;html=1;entryX=1;entryY=0.75;entryDx=0;entryDy=0;" edge="1" parent="1" target="TBLh4uUDlI38wQqFFvVO-7">
          <mxGeometry width="50" height="50" relative="1" as="geometry">
            <mxPoint x="640" y="510" as="sourcePoint" />
            <mxPoint x="600" y="550" as="targetPoint" />
          </mxGeometry>
        </mxCell>
        <mxCell id="TBLh4uUDlI38wQqFFvVO-61" value="②" style="edgeLabel;html=1;align=center;verticalAlign=middle;resizable=0;points=[];" vertex="1" connectable="0" parent="TBLh4uUDlI38wQqFFvVO-54">
          <mxGeometry x="-0.2" relative="1" as="geometry">
            <mxPoint as="offset" />
          </mxGeometry>
        </mxCell>
        <mxCell id="TBLh4uUDlI38wQqFFvVO-55" value="" style="endArrow=classic;html=1;exitX=0.5;exitY=1;exitDx=0;exitDy=0;" edge="1" parent="1" source="TBLh4uUDlI38wQqFFvVO-7" target="TBLh4uUDlI38wQqFFvVO-8">
          <mxGeometry width="50" height="50" relative="1" as="geometry">
            <mxPoint x="550" y="600" as="sourcePoint" />
            <mxPoint x="600" y="550" as="targetPoint" />
          </mxGeometry>
        </mxCell>
        <mxCell id="TBLh4uUDlI38wQqFFvVO-57" value="" style="endArrow=none;dashed=1;html=1;" edge="1" parent="1">
          <mxGeometry width="50" height="50" relative="1" as="geometry">
            <mxPoint x="394.5" y="830" as="sourcePoint" />
            <mxPoint x="394.5" y="320" as="targetPoint" />
          </mxGeometry>
        </mxCell>
        <mxCell id="TBLh4uUDlI38wQqFFvVO-6" value="&lt;b&gt;FORWARD&lt;/b&gt;" style="rounded=1;whiteSpace=wrap;html=1;fillColor=#E6E6E6;glass=1;shadow=1;" vertex="1" parent="1">
          <mxGeometry x="340" y="550" width="110" height="40" as="geometry" />
        </mxCell>
        <mxCell id="TBLh4uUDlI38wQqFFvVO-58" value="INGRESS" style="text;html=1;align=center;verticalAlign=middle;resizable=0;points=[];autosize=1;fontStyle=1" vertex="1" parent="1">
          <mxGeometry x="320" y="340" width="70" height="20" as="geometry" />
        </mxCell>
        <mxCell id="TBLh4uUDlI38wQqFFvVO-59" value="EGRESS" style="text;html=1;align=center;verticalAlign=middle;resizable=0;points=[];autosize=1;fontStyle=1" vertex="1" parent="1">
          <mxGeometry x="400" y="340" width="70" height="20" as="geometry" />
        </mxCell>
      </root>
    </mxGraphModel>
  </diagram>
</mxfile>
